<?xml version="1.0" standalone="no"?><svg xmlns:xlink="http://www.w3.org/1999/xlink" xmlns="http://www.w3.org/2000/svg" viewBox="0 0 1900 1381.8088949708015" preserveAspectRatio="xMaxYMax slice"><g transform="scale(3.295332941362152)"><rect x="0" y="0" width="576.582875" height="419.33299999999997" fill="#fafafa"/><rect x="20.96665" y="20.96665" width="10.483324999999994" height="10.483324999999994" fill="#fafafa"/><g transform="translate(20.97,20.97) scale(0.262) rotate(0)"><path d="M5 0H10L5 5L0 10V5L5 0Z" fill="#99efdf"/><path d="M20 15V20H15L20 15Z" fill="#99efdf"/><path d="M20 5V10L15 15L10 20H5L20 5Z" fill="#99efdf"/><path d="M15 0H20L5 15.0002L0 20.0002V15.0002L15 0Z" fill="#99efdf"/></g><g transform="translate(26.21,20.97) scale(0.262) rotate(0)"><path d="M5 0H10L5 5L0 10V5L5 0Z" fill="#bbc7f6"/><path d="M20 15V20H15L20 15Z" fill="#bbc7f6"/><path d="M20 5V10L15 15L10 20H5L20 5Z" fill="#bbc7f6"/><path d="M15 0H20L5 15.0002L0 20.0002V15.0002L15 0Z" fill="#bbc7f6"/></g><g transform="translate(20.97,26.21) scale(0.262) rotate(0)"><path fill-rule="evenodd" clip-rule="evenodd" d="M10 20C15.5228 20 20 15.5228 20 10C20 4.47715 15.5228 0 10 0C4.47715 0 0 4.47715 0 10C0 15.5228 4.47715 20 10 20ZM10 17C13.866 17 17 13.866 17 10C17 6.13401 13.866 3 10 3C6.13401 3 3 6.13401 3 10C3 13.866 6.13401 17 10 17Z" fill="#d0d8f7"/></g><g transform="translate(26.21,26.21) scale(0.262) rotate(0)"><path d="M10 5L5 0L0 5L5 10L0 15L5 20L10 15L15 20L20 15L15 10L20 5L15 0L10 5Z" fill="#def7f2"/></g><g transform="translate(73.38,20.97) scale(0.524) rotate(0)"><rect width="20" height="10" fill="#a6b5f4"/></g><g transform="translate(125.8,20.97) scale(0.524) rotate(0)"><path d="M13 0H20V7L7 20H0V13L13 0Z" fill="#ff95ae"/></g><rect x="178.216525" y="20.96665" width="10.483324999999994" height="10.483324999999994" fill="#fafafa"/><g transform="translate(178.22,20.97) scale(0.262) rotate(0)"><path d="M10 5L5 0L0 5L5 10L0 15L5 20L10 15L15 20L20 15L15 10L20 5L15 0L10 5Z" fill="#f7f7fa"/></g><circle cx="186.08" cy="23.59" r="2.62" fill="#fcd8e0"/><circle cx="180.84" cy="28.830000000000002" r="2.62" fill="#84edd9"/><g transform="translate(183.46,26.21) scale(0.262) rotate(0)"><rect width="20" height="2" fill="#ff9eb4"/><rect y="4" width="20" height="2" fill="#ff9eb4"/><rect y="8" width="20" height="2" fill="#ff9eb4"/><rect y="12" width="20" height="2" fill="#ff9eb4"/><rect y="16" width="20" height="2" fill="#ff9eb4"/></g><rect x="230.63315" y="20.96665" width="10.483324999999994" height="10.483324999999994" fill="#fafafa"/><circle cx="233.25" cy="23.59" r="2.62" fill="#a2b2f4"/><g transform="translate(235.87,20.97) scale(0.262) rotate(0)"><path d="M10 0H20V10L10 20H0V10L10 0Z" fill="#c9f5ed"/></g><g transform="translate(230.63,26.21) scale(0.262) rotate(0)"><path fill-rule="evenodd" clip-rule="evenodd" d="M10 20C15.5228 20 20 15.5228 20 10C20 4.47715 15.5228 0 10 0C4.47715 0 0 4.47715 0 10C0 15.5228 4.47715 20 10 20ZM10 17C13.866 17 17 13.866 17 10C17 6.13401 13.866 3 10 3C6.13401 3 3 6.13401 3 10C3 13.866 6.13401 17 10 17Z" fill="#e2f7f3"/></g><g transform="translate(235.87,26.21) scale(0.262) rotate(0)"><path d="M10 5L5 0L0 5L5 10L0 15L5 20L10 15L15 20L20 15L15 10L20 5L15 0L10 5Z" fill="#fbe8ec"/></g><rect x="283.049775" y="20.96665" width="10.483324999999994" height="10.483324999999994" fill="#fafafa"/><g transform="translate(283.05,20.97) scale(0.262) rotate(0)"><rect width="20" height="2" fill="#9eaff4"/><rect y="4" width="20" height="2" fill="#9eaff4"/><rect y="8" width="20" height="2" fill="#9eaff4"/><rect y="12" width="20" height="2" fill="#9eaff4"/><rect y="16" width="20" height="2" fill="#9eaff4"/></g><g transform="translate(288.29,20.97) scale(0.262) rotate(0)"><path d="M10 5L5 0L0 5L5 10L0 15L5 20L10 15L15 20L20 15L15 10L20 5L15 0L10 5Z" fill="#94a6f3"/></g><g transform="translate(283.05,26.21) scale(0.262) rotate(0)"><rect width="20" height="2" fill="#dfe4f8"/><rect y="4" width="20" height="2" fill="#dfe4f8"/><rect y="8" width="20" height="2" fill="#dfe4f8"/><rect y="12" width="20" height="2" fill="#dfe4f8"/><rect y="16" width="20" height="2" fill="#dfe4f8"/></g><g transform="translate(288.29,26.21) scale(0.262) rotate(0)"><rect width="20" height="10" fill="#fdb3c4"/></g><rect x="335.46639999999996" y="20.96665" width="10.483324999999994" height="10.483324999999994" fill="#fafafa"/><g transform="translate(335.47,20.97) scale(0.262) rotate(0)"><path d="M10 0L20 10L10 20L0 10L10 0Z" fill="#faf1f3"/></g><g transform="translate(340.71,20.97) scale(0.262) rotate(0)"><rect width="20" height="10" fill="#ddf7f2"/></g><g transform="translate(335.47,26.21) scale(0.262) rotate(0)"><path d="M5 0H10L5 5L0 10V5L5 0Z" fill="#d7f6f0"/><path d="M20 15V20H15L20 15Z" fill="#d7f6f0"/><path d="M20 5V10L15 15L10 20H5L20 5Z" fill="#d7f6f0"/><path d="M15 0H20L5 15.0002L0 20.0002V15.0002L15 0Z" fill="#d7f6f0"/></g><g transform="translate(340.71,26.21) scale(0.262) rotate(0)"><path d="M5 0H10L5 5L0 10V5L5 0Z" fill="#83edd9"/><path d="M20 15V20H15L20 15Z" fill="#83edd9"/><path d="M20 5V10L15 15L10 20H5L20 5Z" fill="#83edd9"/><path d="M15 0H20L5 15.0002L0 20.0002V15.0002L15 0Z" fill="#83edd9"/></g><g transform="translate(387.88,20.97) scale(0.524) rotate(0)"><path d="M13 0H20V7L7 20H0V13L13 0Z" fill="#c9d2f7"/></g><rect x="440.29965" y="20.96665" width="10.483324999999994" height="10.483324999999994" fill="#fafafa"/><circle cx="442.92" cy="23.59" r="2.62" fill="#b9f3e8"/><g transform="translate(445.54,20.97) scale(0.262) rotate(0)"><rect width="20" height="2" fill="#fdbccb"/><rect y="4" width="20" height="2" fill="#fdbccb"/><rect y="8" width="20" height="2" fill="#fdbccb"/><rect y="12" width="20" height="2" fill="#fdbccb"/><rect y="16" width="20" height="2" fill="#fdbccb"/></g><g transform="translate(440.3,26.21) scale(0.262) rotate(0)"><rect width="20" height="2" fill="#aab8f5"/><rect y="4" width="20" height="2" fill="#aab8f5"/><rect y="8" width="20" height="2" fill="#aab8f5"/><rect y="12" width="20" height="2" fill="#aab8f5"/><rect y="16" width="20" height="2" fill="#aab8f5"/></g><g transform="translate(445.54,26.21) scale(0.262) rotate(0)"><path fill-rule="evenodd" clip-rule="evenodd" d="M10 20C15.5228 20 20 15.5228 20 10C20 4.47715 15.5228 0 10 0C4.47715 0 0 4.47715 0 10C0 15.5228 4.47715 20 10 20ZM10 17C13.866 17 17 13.866 17 10C17 6.13401 13.866 3 10 3C6.13401 3 3 6.13401 3 10C3 13.866 6.13401 17 10 17Z" fill="#e3e7f8"/></g><rect x="492.716275" y="20.96665" width="10.483324999999994" height="10.483324999999994" fill="#fafafa"/><g transform="translate(492.72,20.97) scale(0.262) rotate(0)"><path d="M13 0H20V7L7 20H0V13L13 0Z" fill="#ecf8f6"/></g><circle cx="500.58" cy="23.59" r="2.62" fill="#a0b0f4"/><g transform="translate(492.72,26.21) scale(0.262) rotate(0)"><path d="M10 0H20V10L10 20H0V10L10 0Z" fill="#a0b1f4"/></g><g transform="translate(497.96,26.21) scale(0.262) rotate(0)"><path d="M5 0H10L5 5L0 10V5L5 0Z" fill="#9fb0f4"/><path d="M20 15V20H15L20 15Z" fill="#9fb0f4"/><path d="M20 5V10L15 15L10 20H5L20 5Z" fill="#9fb0f4"/><path d="M15 0H20L5 15.0002L0 20.0002V15.0002L15 0Z" fill="#9fb0f4"/></g><g transform="translate(545.13,20.97) scale(0.524) rotate(0)"><path fill-rule="evenodd" clip-rule="evenodd" d="M10 20C15.5228 20 20 15.5228 20 10C20 4.47715 15.5228 0 10 0C4.47715 0 0 4.47715 0 10C0 15.5228 4.47715 20 10 20ZM10 17C13.866 17 17 13.866 17 10C17 6.13401 13.866 3 10 3C6.13401 3 3 6.13401 3 10C3 13.866 6.13401 17 10 17Z" fill="#faf8f8"/></g><rect x="20.96665" y="73.383275" width="10.483324999999994" height="10.483324999999994" fill="#fafafa"/><g transform="translate(20.97,73.38) scale(0.262) rotate(0)"><path d="M10 0L20 10L10 20L0 10L10 0Z" fill="#dee3f8"/></g><g transform="translate(26.21,73.38) scale(0.262) rotate(0)"><path d="M5 0H10L5 5L0 10V5L5 0Z" fill="#fcc9d5"/><path d="M20 15V20H15L20 15Z" fill="#fcc9d5"/><path d="M20 5V10L15 15L10 20H5L20 5Z" fill="#fcc9d5"/><path d="M15 0H20L5 15.0002L0 20.0002V15.0002L15 0Z" fill="#fcc9d5"/></g><g transform="translate(20.97,78.62) scale(0.262) rotate(0)"><rect width="20" height="10" fill="#a7b6f4"/></g><g transform="translate(26.21,78.62) scale(0.262) rotate(0)"><path d="M10 0H20V10L10 20H0V10L10 0Z" fill="#fcd4dd"/></g><rect x="72.01091245454545" y="72.01091245454545" width="13.228050090909086" height="13.228050090909086" fill="#fafafa"/><g transform="translate(72.01,72.01) scale(0.3305) rotate(0)"><rect width="20" height="10" fill="#bdf3e9"/></g><g transform="translate(78.62,72.01) scale(0.3305) rotate(0)"><path d="M10 0H20V10L10 20H0V10L10 0Z" fill="#eef0f9"/></g><g transform="translate(72.01,78.62) scale(0.3305) rotate(0)"><path d="M13 0H20V7L7 20H0V13L13 0Z" fill="#faf5f6"/></g><g transform="translate(78.62,78.62) scale(0.3305) rotate(0)"><rect width="2" height="20" fill="#fcd6df"/><rect x="4" width="2" height="20" fill="#fcd6df"/><rect x="8" width="2" height="20" fill="#fcd6df"/><rect x="12" width="2" height="20" fill="#fcd6df"/><rect x="16" width="2" height="20" fill="#fcd6df"/></g><rect x="123.05517490909091" y="70.6385499090909" width="15.972775181818179" height="15.972775181818179" fill="#fafafa"/><g transform="translate(123.06,70.64) scale(0.3995) rotate(0)"><path d="M5 0H10L5 5L0 10V5L5 0Z" fill="#a0f0e1"/><path d="M20 15V20H15L20 15Z" fill="#a0f0e1"/><path d="M20 5V10L15 15L10 20H5L20 5Z" fill="#a0f0e1"/><path d="M15 0H20L5 15.0002L0 20.0002V15.0002L15 0Z" fill="#a0f0e1"/></g><g transform="translate(131.04,70.64) scale(0.3995) rotate(0)"><path fill-rule="evenodd" clip-rule="evenodd" d="M10 20C15.5228 20 20 15.5228 20 10C20 4.47715 15.5228 0 10 0C4.47715 0 0 4.47715 0 10C0 15.5228 4.47715 20 10 20ZM10 17C13.866 17 17 13.866 17 10C17 6.13401 13.866 3 10 3C6.13401 3 3 6.13401 3 10C3 13.866 6.13401 17 10 17Z" fill="#fbeff1"/></g><g transform="translate(123.06,78.62) scale(0.3995) rotate(0)"><path fill-rule="evenodd" clip-rule="evenodd" d="M10 20C15.5228 20 20 15.5228 20 10C20 4.47715 15.5228 0 10 0C4.47715 0 0 4.47715 0 10C0 15.5228 4.47715 20 10 20ZM10 17C13.866 17 17 13.866 17 10C17 6.13401 13.866 3 10 3C6.13401 3 3 6.13401 3 10C3 13.866 6.13401 17 10 17Z" fill="#fbeef1"/></g><g transform="translate(131.04,78.62) scale(0.3995) rotate(0)"><path d="M5 0H10L5 5L0 10V5L5 0Z" fill="#ebf8f6"/><path d="M20 15V20H15L20 15Z" fill="#ebf8f6"/><path d="M20 5V10L15 15L10 20H5L20 5Z" fill="#ebf8f6"/><path d="M15 0H20L5 15.0002L0 20.0002V15.0002L15 0Z" fill="#ebf8f6"/></g><g transform="translate(174.1,69.27) scale(0.9359999999999999) rotate(0)"><rect width="20" height="10" fill="#fbeef1"/></g><g transform="translate(225.14,67.89) scale(1.073) rotate(0)"><path d="M5 0H10L5 5L0 10V5L5 0Z" fill="#b7f3e8"/><path d="M20 15V20H15L20 15Z" fill="#b7f3e8"/><path d="M20 5V10L15 15L10 20H5L20 5Z" fill="#b7f3e8"/><path d="M15 0H20L5 15.0002L0 20.0002V15.0002L15 0Z" fill="#b7f3e8"/></g><rect x="276.75978" y="67.09328" width="23.063314999999996" height="23.063314999999996" fill="#fafafa"/><g transform="translate(276.76,67.09) scale(0.5765) rotate(0)"><path fill-rule="evenodd" clip-rule="evenodd" d="M10 20C15.5228 20 20 15.5228 20 10C20 4.47715 15.5228 0 10 0C4.47715 0 0 4.47715 0 10C0 15.5228 4.47715 20 10 20ZM10 17C13.866 17 17 13.866 17 10C17 6.13401 13.866 3 10 3C6.13401 3 3 6.13401 3 10C3 13.866 6.13401 17 10 17Z" fill="#88eedb"/></g><g transform="translate(288.29,67.09) scale(0.5765) rotate(0)"><rect width="20" height="2" fill="#dae0f8"/><rect y="4" width="20" height="2" fill="#dae0f8"/><rect y="8" width="20" height="2" fill="#dae0f8"/><rect y="12" width="20" height="2" fill="#dae0f8"/><rect y="16" width="20" height="2" fill="#dae0f8"/></g><g transform="translate(276.76,78.62) scale(0.5765) rotate(0)"><path d="M10 0H20V10L10 20H0V10L10 0Z" fill="#fcdae2"/></g><g transform="translate(288.29,78.62) scale(0.5765) rotate(0)"><path d="M5 0H10L5 5L0 10V5L5 0Z" fill="#8deedc"/><path d="M20 15V20H15L20 15Z" fill="#8deedc"/><path d="M20 5V10L15 15L10 20H5L20 5Z" fill="#8deedc"/><path d="M15 0H20L5 15.0002L0 20.0002V15.0002L15 0Z" fill="#8deedc"/></g><rect x="329.17640499999993" y="67.09328" width="23.063314999999996" height="23.063314999999996" fill="#fafafa"/><g transform="translate(329.18,67.09) scale(0.5765) rotate(0)"><rect width="20" height="10" fill="#e1e6f8"/></g><g transform="translate(340.71,67.09) scale(0.5765) rotate(0)"><path fill-rule="evenodd" clip-rule="evenodd" d="M10 20C15.5228 20 20 15.5228 20 10C20 4.47715 15.5228 0 10 0C4.47715 0 0 4.47715 0 10C0 15.5228 4.47715 20 10 20ZM10 17C13.866 17 17 13.866 17 10C17 6.13401 13.866 3 10 3C6.13401 3 3 6.13401 3 10C3 13.866 6.13401 17 10 17Z" fill="#feb0c2"/></g><circle cx="334.945" cy="84.385" r="5.765" fill="#e9f8f5"/><g transform="translate(340.71,78.62) scale(0.5765) rotate(0)"><path fill-rule="evenodd" clip-rule="evenodd" d="M10 20C15.5228 20 20 15.5228 20 10C20 4.47715 15.5228 0 10 0C4.47715 0 0 4.47715 0 10C0 15.5228 4.47715 20 10 20ZM10 17C13.866 17 17 13.866 17 10C17 6.13401 13.866 3 10 3C6.13401 3 3 6.13401 3 10C3 13.866 6.13401 17 10 17Z" fill="#fbeff2"/></g><g transform="translate(382.39,67.89) scale(1.073) rotate(0)"><rect width="2" height="20" fill="#9ef0e1"/><rect x="4" width="2" height="20" fill="#9ef0e1"/><rect x="8" width="2" height="20" fill="#9ef0e1"/><rect x="12" width="2" height="20" fill="#9ef0e1"/><rect x="16" width="2" height="20" fill="#9ef0e1"/></g><g transform="translate(436.18,69.27) scale(0.9359999999999999) rotate(0)"><rect width="2" height="20" fill="#fbedf0"/><rect x="4" width="2" height="20" fill="#fbedf0"/><rect x="8" width="2" height="20" fill="#fbedf0"/><rect x="12" width="2" height="20" fill="#fbedf0"/><rect x="16" width="2" height="20" fill="#fbedf0"/></g><rect x="489.97154990909087" y="70.6385499090909" width="15.972775181818179" height="15.972775181818179" fill="#fafafa"/><circle cx="493.96500000000003" cy="74.635" r="3.995" fill="#feaec1"/><g transform="translate(497.96,70.64) scale(0.3995) rotate(0)"><rect width="20" height="10" fill="#e3e7f8"/></g><g transform="translate(489.97,78.62) scale(0.3995) rotate(0)"><path fill-rule="evenodd" clip-rule="evenodd" d="M10 20C15.5228 20 20 15.5228 20 10C20 4.47715 15.5228 0 10 0C4.47715 0 0 4.47715 0 10C0 15.5228 4.47715 20 10 20ZM10 17C13.866 17 17 13.866 17 10C17 6.13401 13.866 3 10 3C6.13401 3 3 6.13401 3 10C3 13.866 6.13401 17 10 17Z" fill="#95a7f3"/></g><g transform="translate(497.96,78.62) scale(0.3995) rotate(0)"><path d="M10 0L20 10L10 20L0 10L10 0Z" fill="#b5c1f5"/></g><rect x="543.7605374545454" y="72.01091245454545" width="13.228050090909086" height="13.228050090909086" fill="#fafafa"/><circle cx="547.0649999999999" cy="75.31500000000001" r="3.305" fill="#fdbbca"/><g transform="translate(550.37,72.01) scale(0.3305) rotate(0)"><path d="M10 0L20 10L10 20L0 10L10 0Z" fill="#edf9f6"/></g><g transform="translate(543.76,78.62) scale(0.3305) rotate(0)"><path d="M5 0H10L5 5L0 10V5L5 0Z" fill="#feafc2"/><path d="M20 15V20H15L20 15Z" fill="#feafc2"/><path d="M20 5V10L15 15L10 20H5L20 5Z" fill="#feafc2"/><path d="M15 0H20L5 15.0002L0 20.0002V15.0002L15 0Z" fill="#feafc2"/></g><g transform="translate(550.37,78.62) scale(0.3305) rotate(0)"><path d="M5 0H10L5 5L0 10V5L5 0Z" fill="#a6b5f4"/><path d="M20 15V20H15L20 15Z" fill="#a6b5f4"/><path d="M20 5V10L15 15L10 20H5L20 5Z" fill="#a6b5f4"/><path d="M15 0H20L5 15.0002L0 20.0002V15.0002L15 0Z" fill="#a6b5f4"/></g><g transform="translate(20.97,125.8) scale(0.524) rotate(0)"><path fill-rule="evenodd" clip-rule="evenodd" d="M10 20C15.5228 20 20 15.5228 20 10C20 4.47715 15.5228 0 10 0C4.47715 0 0 4.47715 0 10C0 15.5228 4.47715 20 10 20ZM10 17C13.866 17 17 13.866 17 10C17 6.13401 13.866 3 10 3C6.13401 3 3 6.13401 3 10C3 13.866 6.13401 17 10 17Z" fill="#d2d9f7"/></g><rect x="70.63854990909091" y="123.05517490909091" width="15.972775181818172" height="15.972775181818172" fill="#fafafa"/><g transform="translate(70.64,123.06) scale(0.3995) rotate(0)"><rect width="20" height="10" fill="#9badf4"/></g><circle cx="82.61500000000001" cy="127.055" r="3.995" fill="#e6eaf9"/><g transform="translate(70.64,131.04) scale(0.3995) rotate(0)"><path d="M10 5L5 0L0 5L5 10L0 15L5 20L10 15L15 20L20 15L15 10L20 5L15 0L10 5Z" fill="#d1f6ef"/></g><g transform="translate(78.62,131.04) scale(0.3995) rotate(0)"><rect width="20" height="2" fill="#fcd8e0"/><rect y="4" width="20" height="2" fill="#fcd8e0"/><rect y="8" width="20" height="2" fill="#fcd8e0"/><rect y="12" width="20" height="2" fill="#fcd8e0"/><rect y="16" width="20" height="2" fill="#fcd8e0"/></g><circle cx="131.04" cy="131.04" r="10.73" fill="#faf6f7"/><circle cx="183.45499999999998" cy="131.045" r="13.475" fill="#7fedd8"/><g transform="translate(219.65,114.82) scale(1.6219999999999999) rotate(0)"><rect width="20" height="10" fill="#fdc1cf"/></g><rect x="270.469785" y="113.21991" width="35.643305" height="35.643305" fill="#fafafa"/><g transform="translate(270.47,113.22) scale(0.891) rotate(0)"><path d="M5 0H10L5 5L0 10V5L5 0Z" fill="#d8f6f1"/><path d="M20 15V20H15L20 15Z" fill="#d8f6f1"/><path d="M20 5V10L15 15L10 20H5L20 5Z" fill="#d8f6f1"/><path d="M15 0H20L5 15.0002L0 20.0002V15.0002L15 0Z" fill="#d8f6f1"/></g><g transform="translate(288.29,113.22) scale(0.891) rotate(0)"><rect width="20" height="2" fill="#adf2e5"/><rect y="4" width="20" height="2" fill="#adf2e5"/><rect y="8" width="20" height="2" fill="#adf2e5"/><rect y="12" width="20" height="2" fill="#adf2e5"/><rect y="16" width="20" height="2" fill="#adf2e5"/></g><g transform="translate(270.47,131.04) scale(0.891) rotate(0)"><rect width="20" height="10" fill="#fbeff2"/></g><g transform="translate(288.29,131.04) scale(0.891) rotate(0)"><path fill-rule="evenodd" clip-rule="evenodd" d="M10 20C15.5228 20 20 15.5228 20 10C20 4.47715 15.5228 0 10 0C4.47715 0 0 4.47715 0 10C0 15.5228 4.47715 20 10 20ZM10 17C13.866 17 17 13.866 17 10C17 6.13401 13.866 3 10 3C6.13401 3 3 6.13401 3 10C3 13.866 6.13401 17 10 17Z" fill="#c5f4eb"/></g><rect x="322.88640999999996" y="113.21991" width="35.643305" height="35.643305" fill="#fafafa"/><g transform="translate(322.89,113.22) scale(0.891) rotate(0)"><rect width="20" height="10" fill="#fea7bc"/></g><g transform="translate(340.71,113.22) scale(0.891) rotate(0)"><rect width="2" height="20" fill="#aab8f5"/><rect x="4" width="2" height="20" fill="#aab8f5"/><rect x="8" width="2" height="20" fill="#aab8f5"/><rect x="12" width="2" height="20" fill="#aab8f5"/><rect x="16" width="2" height="20" fill="#aab8f5"/></g><circle cx="331.8" cy="139.95" r="8.91" fill="#e6e9f9"/><g transform="translate(340.71,131.04) scale(0.891) rotate(0)"><rect width="20" height="10" fill="#b3c0f5"/></g><g transform="translate(376.9,114.82) scale(1.6219999999999999) rotate(0)"><rect width="20" height="10" fill="#fbecf0"/></g><rect x="432.0654747272727" y="117.56572472727272" width="26.95167554545454" height="26.95167554545454" fill="#fafafa"/><circle cx="438.81" cy="124.30999999999999" r="6.74" fill="#e9f8f5"/><g transform="translate(445.54,117.57) scale(0.674) rotate(0)"><path fill-rule="evenodd" clip-rule="evenodd" d="M10 20C15.5228 20 20 15.5228 20 10C20 4.47715 15.5228 0 10 0C4.47715 0 0 4.47715 0 10C0 15.5228 4.47715 20 10 20ZM10 17C13.866 17 17 13.866 17 10C17 6.13401 13.866 3 10 3C6.13401 3 3 6.13401 3 10C3 13.866 6.13401 17 10 17Z" fill="#b3f2e6"/></g><g transform="translate(432.07,131.04) scale(0.674) rotate(0)"><path d="M10 0H20V10L10 20H0V10L10 0Z" fill="#eff9f7"/></g><g transform="translate(445.54,131.04) scale(0.674) rotate(0)"><rect width="2" height="20" fill="#b8f3e8"/><rect x="4" width="2" height="20" fill="#b8f3e8"/><rect x="8" width="2" height="20" fill="#b8f3e8"/><rect x="12" width="2" height="20" fill="#b8f3e8"/><rect x="16" width="2" height="20" fill="#b8f3e8"/></g><rect x="487.2268248181818" y="120.31044981818181" width="21.462225363636364" height="21.462225363636364" fill="#fafafa"/><g transform="translate(487.23,120.31) scale(0.5365) rotate(0)"><path d="M10 0L20 10L10 20L0 10L10 0Z" fill="#85edda"/></g><g transform="translate(497.96,120.31) scale(0.5365) rotate(0)"><path d="M5 0H10L5 5L0 10V5L5 0Z" fill="#feafc1"/><path d="M20 15V20H15L20 15Z" fill="#feafc1"/><path d="M20 5V10L15 15L10 20H5L20 5Z" fill="#feafc1"/><path d="M15 0H20L5 15.0002L0 20.0002V15.0002L15 0Z" fill="#feafc1"/></g><g transform="translate(487.23,131.04) scale(0.5365) rotate(0)"><path d="M10 5L5 0L0 5L5 10L0 15L5 20L10 15L15 20L20 15L15 10L20 5L15 0L10 5Z" fill="#a0b0f4"/></g><circle cx="503.325" cy="136.405" r="5.365" fill="#fdc1cf"/><rect x="542.3881749090909" y="123.05517490909091" width="15.972775181818172" height="15.972775181818172" fill="#fafafa"/><g transform="translate(542.39,123.06) scale(0.3995) rotate(0)"><path d="M10 5L5 0L0 5L5 10L0 15L5 20L10 15L15 20L20 15L15 10L20 5L15 0L10 5Z" fill="#caf5ed"/></g><g transform="translate(550.37,123.06) scale(0.3995) rotate(0)"><rect width="20" height="2" fill="#b7f3e8"/><rect y="4" width="20" height="2" fill="#b7f3e8"/><rect y="8" width="20" height="2" fill="#b7f3e8"/><rect y="12" width="20" height="2" fill="#b7f3e8"/><rect y="16" width="20" height="2" fill="#b7f3e8"/></g><circle cx="546.385" cy="135.035" r="3.995" fill="#ff99b1"/><g transform="translate(550.37,131.04) scale(0.3995) rotate(0)"><path d="M10 5L5 0L0 5L5 10L0 15L5 20L10 15L15 20L20 15L15 10L20 5L15 0L10 5Z" fill="#d4dbf7"/></g><rect x="20.96665" y="178.216525" width="10.483324999999994" height="10.483324999999994" fill="#fafafa"/><g transform="translate(20.97,178.22) scale(0.262) rotate(0)"><rect width="2" height="20" fill="#c3cdf6"/><rect x="4" width="2" height="20" fill="#c3cdf6"/><rect x="8" width="2" height="20" fill="#c3cdf6"/><rect x="12" width="2" height="20" fill="#c3cdf6"/><rect x="16" width="2" height="20" fill="#c3cdf6"/></g><g transform="translate(26.21,178.22) scale(0.262) rotate(0)"><path fill-rule="evenodd" clip-rule="evenodd" d="M10 20C15.5228 20 20 15.5228 20 10C20 4.47715 15.5228 0 10 0C4.47715 0 0 4.47715 0 10C0 15.5228 4.47715 20 10 20ZM10 17C13.866 17 17 13.866 17 10C17 6.13401 13.866 3 10 3C6.13401 3 3 6.13401 3 10C3 13.866 6.13401 17 10 17Z" fill="#fdb6c7"/></g><g transform="translate(20.97,183.46) scale(0.262) rotate(0)"><path d="M13 0H20V7L7 20H0V13L13 0Z" fill="#f7faf9"/></g><g transform="translate(26.21,183.46) scale(0.262) rotate(0)"><path fill-rule="evenodd" clip-rule="evenodd" d="M10 20C15.5228 20 20 15.5228 20 10C20 4.47715 15.5228 0 10 0C4.47715 0 0 4.47715 0 10C0 15.5228 4.47715 20 10 20ZM10 17C13.866 17 17 13.866 17 10C17 6.13401 13.866 3 10 3C6.13401 3 3 6.13401 3 10C3 13.866 6.13401 17 10 17Z" fill="#f1f2f9"/></g><g transform="translate(69.27,174.1) scale(0.9359999999999999) rotate(0)"><path d="M10 0L20 10L10 20L0 10L10 0Z" fill="#96a8f3"/></g><rect x="117.56572472727272" y="169.9823497272727" width="26.95167554545454" height="26.95167554545454" fill="#fafafa"/><g transform="translate(117.57,169.98) scale(0.674) rotate(0)"><path fill-rule="evenodd" clip-rule="evenodd" d="M10 20C15.5228 20 20 15.5228 20 10C20 4.47715 15.5228 0 10 0C4.47715 0 0 4.47715 0 10C0 15.5228 4.47715 20 10 20ZM10 17C13.866 17 17 13.866 17 10C17 6.13401 13.866 3 10 3C6.13401 3 3 6.13401 3 10C3 13.866 6.13401 17 10 17Z" fill="#fdb5c6"/></g><g transform="translate(131.04,169.98) scale(0.674) rotate(0)"><path d="M10 0H20V10L10 20H0V10L10 0Z" fill="#ebedf9"/></g><g transform="translate(117.57,183.46) scale(0.674) rotate(0)"><path fill-rule="evenodd" clip-rule="evenodd" d="M10 20C15.5228 20 20 15.5228 20 10C20 4.47715 15.5228 0 10 0C4.47715 0 0 4.47715 0 10C0 15.5228 4.47715 20 10 20ZM10 17C13.866 17 17 13.866 17 10C17 6.13401 13.866 3 10 3C6.13401 3 3 6.13401 3 10C3 13.866 6.13401 17 10 17Z" fill="#bcc7f6"/></g><circle cx="137.78" cy="190.20000000000002" r="6.74" fill="#fbdfe6"/><circle cx="183.465" cy="183.465" r="17.595" fill="#c0f4ea"/><rect x="214.16479945454543" y="161.74817445454542" width="43.42002609090908" height="43.42002609090908" fill="#fafafa"/><g transform="translate(214.16,161.75) scale(1.0855000000000001) rotate(0)"><path d="M5 0H10L5 5L0 10V5L5 0Z" fill="#d4dbf7"/><path d="M20 15V20H15L20 15Z" fill="#d4dbf7"/><path d="M20 5V10L15 15L10 20H5L20 5Z" fill="#d4dbf7"/><path d="M15 0H20L5 15.0002L0 20.0002V15.0002L15 0Z" fill="#d4dbf7"/></g><circle cx="246.725" cy="172.605" r="10.855" fill="#a0b0f4"/><g transform="translate(214.16,183.46) scale(1.0855000000000001) rotate(0)"><path d="M5 0H10L5 5L0 10V5L5 0Z" fill="#c7f4ec"/><path d="M20 15V20H15L20 15Z" fill="#c7f4ec"/><path d="M20 5V10L15 15L10 20H5L20 5Z" fill="#c7f4ec"/><path d="M15 0H20L5 15.0002L0 20.0002V15.0002L15 0Z" fill="#c7f4ec"/></g><g transform="translate(235.87,183.46) scale(1.0855000000000001) rotate(0)"><rect width="20" height="10" fill="#abf1e4"/></g><g transform="translate(264.18,159.35) scale(2.411) rotate(0)"><rect width="20" height="10" fill="#dcf7f2"/></g><rect x="316.596415" y="159.34653999999998" width="48.22329499999999" height="48.22329499999999" fill="#fafafa"/><g transform="translate(316.6,159.35) scale(1.2055) rotate(0)"><path fill-rule="evenodd" clip-rule="evenodd" d="M10 20C15.5228 20 20 15.5228 20 10C20 4.47715 15.5228 0 10 0C4.47715 0 0 4.47715 0 10C0 15.5228 4.47715 20 10 20ZM10 17C13.866 17 17 13.866 17 10C17 6.13401 13.866 3 10 3C6.13401 3 3 6.13401 3 10C3 13.866 6.13401 17 10 17Z" fill="#eff1f9"/></g><g transform="translate(340.71,159.35) scale(1.2055) rotate(0)"><path d="M5 0H10L5 5L0 10V5L5 0Z" fill="#99abf4"/><path d="M20 15V20H15L20 15Z" fill="#99abf4"/><path d="M20 5V10L15 15L10 20H5L20 5Z" fill="#99abf4"/><path d="M15 0H20L5 15.0002L0 20.0002V15.0002L15 0Z" fill="#99abf4"/></g><circle cx="328.65500000000003" cy="195.51500000000001" r="12.055" fill="#ebeef9"/><g transform="translate(340.71,183.46) scale(1.2055) rotate(0)"><path d="M10 5L5 0L0 5L5 10L0 15L5 20L10 15L15 20L20 15L15 10L20 5L15 0L10 5Z" fill="#ff97af"/></g><rect x="371.41467445454543" y="161.74817445454542" width="43.42002609090908" height="43.42002609090908" fill="#fafafa"/><circle cx="382.26500000000004" cy="172.605" r="10.855" fill="#d3daf7"/><circle cx="403.975" cy="172.605" r="10.855" fill="#79ecd6"/><g transform="translate(371.41,183.46) scale(1.0855000000000001) rotate(0)"><path d="M13 0H20V7L7 20H0V13L13 0Z" fill="#fdb8c8"/></g><g transform="translate(393.12,183.46) scale(1.0855000000000001) rotate(0)"><path d="M10 0L20 10L10 20L0 10L10 0Z" fill="#93efde"/></g><g transform="translate(427.95,165.87) scale(1.7594999999999998) rotate(0)"><path d="M10 0H20V10L10 20H0V10L10 0Z" fill="#b3f2e6"/></g><g transform="translate(484.48,169.98) scale(1.3475) rotate(0)"><path d="M5 0H10L5 5L0 10V5L5 0Z" fill="#e4f8f4"/><path d="M20 15V20H15L20 15Z" fill="#e4f8f4"/><path d="M20 5V10L15 15L10 20H5L20 5Z" fill="#e4f8f4"/><path d="M15 0H20L5 15.0002L0 20.0002V15.0002L15 0Z" fill="#e4f8f4"/></g><rect x="541.0158123636363" y="174.09943736363633" width="18.71750027272727" height="18.71750027272727" fill="#fafafa"/><g transform="translate(541.02,174.1) scale(0.46799999999999997) rotate(0)"><path fill-rule="evenodd" clip-rule="evenodd" d="M10 20C15.5228 20 20 15.5228 20 10C20 4.47715 15.5228 0 10 0C4.47715 0 0 4.47715 0 10C0 15.5228 4.47715 20 10 20ZM10 17C13.866 17 17 13.866 17 10C17 6.13401 13.866 3 10 3C6.13401 3 3 6.13401 3 10C3 13.866 6.13401 17 10 17Z" fill="#cfd7f7"/></g><g transform="translate(550.37,174.1) scale(0.46799999999999997) rotate(0)"><path d="M13 0H20V7L7 20H0V13L13 0Z" fill="#7decd8"/></g><g transform="translate(541.02,183.46) scale(0.46799999999999997) rotate(0)"><path d="M10 5L5 0L0 5L5 10L0 15L5 20L10 15L15 20L20 15L15 10L20 5L15 0L10 5Z" fill="#dae0f8"/></g><circle cx="555.05" cy="188.14000000000001" r="4.68" fill="#faf2f4"/><g transform="translate(20.97,230.63) scale(0.524) rotate(0)"><path d="M10 0L20 10L10 20L0 10L10 0Z" fill="#97efdf"/></g><rect x="68.80873318181818" y="226.05860818181816" width="19.63240863636363" height="19.63240863636363" fill="#fafafa"/><g transform="translate(68.81,226.06) scale(0.491) rotate(0)"><rect width="2" height="20" fill="#95efde"/><rect x="4" width="2" height="20" fill="#95efde"/><rect x="8" width="2" height="20" fill="#95efde"/><rect x="12" width="2" height="20" fill="#95efde"/><rect x="16" width="2" height="20" fill="#95efde"/></g><g transform="translate(78.62,226.06) scale(0.491) rotate(0)"><path d="M5 0H10L5 5L0 10V5L5 0Z" fill="#e6f8f4"/><path d="M20 15V20H15L20 15Z" fill="#e6f8f4"/><path d="M20 5V10L15 15L10 20H5L20 5Z" fill="#e6f8f4"/><path d="M15 0H20L5 15.0002L0 20.0002V15.0002L15 0Z" fill="#e6f8f4"/></g><g transform="translate(68.81,235.87) scale(0.491) rotate(0)"><path d="M10 0H20V10L10 20H0V10L10 0Z" fill="#9cf0e0"/></g><g transform="translate(78.62,235.87) scale(0.491) rotate(0)"><path d="M13 0H20V7L7 20H0V13L13 0Z" fill="#feb2c4"/></g><circle cx="131.04000000000002" cy="235.87" r="14.39" fill="#fbf0f2"/><rect x="164.49289954545452" y="216.90952454545453" width="37.9305759090909" height="37.9305759090909" fill="#fafafa"/><g transform="translate(164.49,216.91) scale(0.9484999999999999) rotate(0)"><path d="M10 5L5 0L0 5L5 10L0 15L5 20L10 15L15 20L20 15L15 10L20 5L15 0L10 5Z" fill="#95a7f3"/></g><g transform="translate(183.46,216.91) scale(0.9484999999999999) rotate(0)"><path d="M5 0H10L5 5L0 10V5L5 0Z" fill="#f8fafa"/><path d="M20 15V20H15L20 15Z" fill="#f8fafa"/><path d="M20 5V10L15 15L10 20H5L20 5Z" fill="#f8fafa"/><path d="M15 0H20L5 15.0002L0 20.0002V15.0002L15 0Z" fill="#f8fafa"/></g><g transform="translate(164.49,235.87) scale(0.9484999999999999) rotate(0)"><path d="M10 0H20V10L10 20H0V10L10 0Z" fill="#7cecd7"/></g><g transform="translate(183.46,235.87) scale(0.9484999999999999) rotate(0)"><path d="M13 0H20V7L7 20H0V13L13 0Z" fill="#c6cff7"/></g><rect x="212.33498272727272" y="212.33498272727272" width="47.07965954545454" height="47.07965954545454" fill="#fafafa"/><g transform="translate(212.33,212.33) scale(1.177) rotate(0)"><rect width="20" height="10" fill="#9cf0e0"/></g><g transform="translate(235.87,212.33) scale(1.177) rotate(0)"><path d="M10 0L20 10L10 20L0 10L10 0Z" fill="#a8f1e3"/></g><g transform="translate(212.33,235.87) scale(1.177) rotate(0)"><path d="M10 0L20 10L10 20L0 10L10 0Z" fill="#b5f3e7"/></g><g transform="translate(235.87,235.87) scale(1.177) rotate(0)"><path fill-rule="evenodd" clip-rule="evenodd" d="M10 20C15.5228 20 20 15.5228 20 10C20 4.47715 15.5228 0 10 0C4.47715 0 0 4.47715 0 10C0 15.5228 4.47715 20 10 20ZM10 17C13.866 17 17 13.866 17 10C17 6.13401 13.866 3 10 3C6.13401 3 3 6.13401 3 10C3 13.866 6.13401 17 10 17Z" fill="#fdbecd"/></g><g transform="translate(262.08,209.67) scale(2.621) rotate(0)"><rect width="20" height="2" fill="#fcd4dd"/><rect y="4" width="20" height="2" fill="#fcd4dd"/><rect y="8" width="20" height="2" fill="#fcd4dd"/><rect y="12" width="20" height="2" fill="#fcd4dd"/><rect y="16" width="20" height="2" fill="#fcd4dd"/></g><g transform="translate(314.5,209.67) scale(2.621) rotate(0)"><path d="M10 0H20V10L10 20H0V10L10 0Z" fill="#e2f7f4"/></g><rect x="369.58485772727266" y="212.33498272727272" width="47.07965954545454" height="47.07965954545454" fill="#fafafa"/><g transform="translate(369.58,212.33) scale(1.177) rotate(0)"><rect width="20" height="2" fill="#eff1f9"/><rect y="4" width="20" height="2" fill="#eff1f9"/><rect y="8" width="20" height="2" fill="#eff1f9"/><rect y="12" width="20" height="2" fill="#eff1f9"/><rect y="16" width="20" height="2" fill="#eff1f9"/></g><g transform="translate(393.12,212.33) scale(1.177) rotate(0)"><path d="M10 5L5 0L0 5L5 10L0 15L5 20L10 15L15 20L20 15L15 10L20 5L15 0L10 5Z" fill="#fdbbca"/></g><g transform="translate(369.58,235.87) scale(1.177) rotate(0)"><rect width="20" height="2" fill="#a7b6f4"/><rect y="4" width="20" height="2" fill="#a7b6f4"/><rect y="8" width="20" height="2" fill="#a7b6f4"/><rect y="12" width="20" height="2" fill="#a7b6f4"/><rect y="16" width="20" height="2" fill="#a7b6f4"/></g><g transform="translate(393.12,235.87) scale(1.177) rotate(0)"><path d="M5 0H10L5 5L0 10V5L5 0Z" fill="#c4f4eb"/><path d="M20 15V20H15L20 15Z" fill="#c4f4eb"/><path d="M20 5V10L15 15L10 20H5L20 5Z" fill="#c4f4eb"/><path d="M15 0H20L5 15.0002L0 20.0002V15.0002L15 0Z" fill="#c4f4eb"/></g><g transform="translate(426.58,216.91) scale(1.8965) rotate(0)"><path d="M10 5L5 0L0 5L5 10L0 15L5 20L10 15L15 20L20 15L15 10L20 5L15 0L10 5Z" fill="#feaec0"/></g><rect x="483.56719136363637" y="221.48406636363634" width="28.781492272727267" height="28.781492272727267" fill="#fafafa"/><g transform="translate(483.57,221.48) scale(0.7195) rotate(0)"><path d="M13 0H20V7L7 20H0V13L13 0Z" fill="#94a6f3"/></g><g transform="translate(497.96,221.48) scale(0.7195) rotate(0)"><path d="M10 0L20 10L10 20L0 10L10 0Z" fill="#cbf5ed"/></g><circle cx="490.765" cy="243.065" r="7.195" fill="#fcc9d5"/><g transform="translate(497.96,235.87) scale(0.7195) rotate(0)"><path fill-rule="evenodd" clip-rule="evenodd" d="M10 20C15.5228 20 20 15.5228 20 10C20 4.47715 15.5228 0 10 0C4.47715 0 0 4.47715 0 10C0 15.5228 4.47715 20 10 20ZM10 17C13.866 17 17 13.866 17 10C17 6.13401 13.866 3 10 3C6.13401 3 3 6.13401 3 10C3 13.866 6.13401 17 10 17Z" fill="#b7c3f6"/></g><g transform="translate(540.56,226.06) scale(0.9814999999999999) rotate(0)"><rect width="2" height="20" fill="#e7ebf9"/><rect x="4" width="2" height="20" fill="#e7ebf9"/><rect x="8" width="2" height="20" fill="#e7ebf9"/><rect x="12" width="2" height="20" fill="#e7ebf9"/><rect x="16" width="2" height="20" fill="#e7ebf9"/></g><rect x="20.96665" y="283.049775" width="10.483324999999994" height="10.483324999999994" fill="#fafafa"/><g transform="translate(20.97,283.05) scale(0.262) rotate(0)"><path fill-rule="evenodd" clip-rule="evenodd" d="M10 20C15.5228 20 20 15.5228 20 10C20 4.47715 15.5228 0 10 0C4.47715 0 0 4.47715 0 10C0 15.5228 4.47715 20 10 20ZM10 17C13.866 17 17 13.866 17 10C17 6.13401 13.866 3 10 3C6.13401 3 3 6.13401 3 10C3 13.866 6.13401 17 10 17Z" fill="#9bacf4"/></g><circle cx="28.830000000000002" cy="285.67" r="2.62" fill="#ff9bb3"/><g transform="translate(20.97,288.29) scale(0.262) rotate(0)"><path d="M5 0H10L5 5L0 10V5L5 0Z" fill="#f6f6fa"/><path d="M20 15V20H15L20 15Z" fill="#f6f6fa"/><path d="M20 5V10L15 15L10 20H5L20 5Z" fill="#f6f6fa"/><path d="M15 0H20L5 15.0002L0 20.0002V15.0002L15 0Z" fill="#f6f6fa"/></g><circle cx="28.830000000000002" cy="290.91" r="2.62" fill="#fcd6de"/><rect x="69.26618736363636" y="278.9326873636364" width="18.71750027272727" height="18.71750027272727" fill="#fafafa"/><g transform="translate(69.27,278.93) scale(0.46799999999999997) rotate(0)"><path fill-rule="evenodd" clip-rule="evenodd" d="M10 20C15.5228 20 20 15.5228 20 10C20 4.47715 15.5228 0 10 0C4.47715 0 0 4.47715 0 10C0 15.5228 4.47715 20 10 20ZM10 17C13.866 17 17 13.866 17 10C17 6.13401 13.866 3 10 3C6.13401 3 3 6.13401 3 10C3 13.866 6.13401 17 10 17Z" fill="#f8faf9"/></g><g transform="translate(78.62,278.93) scale(0.46799999999999997) rotate(0)"><path d="M10 5L5 0L0 5L5 10L0 15L5 20L10 15L15 20L20 15L15 10L20 5L15 0L10 5Z" fill="#dce1f8"/></g><g transform="translate(69.27,288.29) scale(0.46799999999999997) rotate(0)"><path d="M5 0H10L5 5L0 10V5L5 0Z" fill="#fdb3c5"/><path d="M20 15V20H15L20 15Z" fill="#fdb3c5"/><path d="M20 5V10L15 15L10 20H5L20 5Z" fill="#fdb3c5"/><path d="M15 0H20L5 15.0002L0 20.0002V15.0002L15 0Z" fill="#fdb3c5"/></g><g transform="translate(78.62,288.29) scale(0.46799999999999997) rotate(0)"><path fill-rule="evenodd" clip-rule="evenodd" d="M10 20C15.5228 20 20 15.5228 20 10C20 4.47715 15.5228 0 10 0C4.47715 0 0 4.47715 0 10C0 15.5228 4.47715 20 10 20ZM10 17C13.866 17 17 13.866 17 10C17 6.13401 13.866 3 10 3C6.13401 3 3 6.13401 3 10C3 13.866 6.13401 17 10 17Z" fill="#ff97af"/></g><rect x="117.56572472727272" y="274.81559972727274" width="26.95167554545454" height="26.95167554545454" fill="#fafafa"/><g transform="translate(117.57,274.82) scale(0.674) rotate(0)"><path d="M10 5L5 0L0 5L5 10L0 15L5 20L10 15L15 20L20 15L15 10L20 5L15 0L10 5Z" fill="#bbc6f6"/></g><g transform="translate(131.04,274.82) scale(0.674) rotate(0)"><path d="M10 5L5 0L0 5L5 10L0 15L5 20L10 15L15 20L20 15L15 10L20 5L15 0L10 5Z" fill="#a0b0f4"/></g><g transform="translate(117.57,288.29) scale(0.674) rotate(0)"><path d="M10 5L5 0L0 5L5 10L0 15L5 20L10 15L15 20L20 15L15 10L20 5L15 0L10 5Z" fill="#fccfd9"/></g><g transform="translate(131.04,288.29) scale(0.674) rotate(0)"><path d="M10 0H20V10L10 20H0V10L10 0Z" fill="#dae0f8"/></g><rect x="165.86526209090906" y="270.6985120909091" width="35.185850818181805" height="35.185850818181805" fill="#fafafa"/><g transform="translate(165.87,270.7) scale(0.8795) rotate(0)"><rect width="2" height="20" fill="#e3f7f4"/><rect x="4" width="2" height="20" fill="#e3f7f4"/><rect x="8" width="2" height="20" fill="#e3f7f4"/><rect x="12" width="2" height="20" fill="#e3f7f4"/><rect x="16" width="2" height="20" fill="#e3f7f4"/></g><circle cx="192.255" cy="279.495" r="8.795" fill="#c6f4ec"/><g transform="translate(165.87,288.29) scale(0.8795) rotate(0)"><path d="M10 0L20 10L10 20L0 10L10 0Z" fill="#fcd7e0"/></g><g transform="translate(183.46,288.29) scale(0.8795) rotate(0)"><rect width="2" height="20" fill="#dcf7f2"/><rect x="4" width="2" height="20" fill="#dcf7f2"/><rect x="8" width="2" height="20" fill="#dcf7f2"/><rect x="12" width="2" height="20" fill="#dcf7f2"/><rect x="16" width="2" height="20" fill="#dcf7f2"/></g><rect x="214.16479945454543" y="266.58142445454547" width="43.42002609090908" height="43.42002609090908" fill="#fafafa"/><g transform="translate(214.16,266.58) scale(1.0855000000000001) rotate(0)"><rect width="2" height="20" fill="#fbebef"/><rect x="4" width="2" height="20" fill="#fbebef"/><rect x="8" width="2" height="20" fill="#fbebef"/><rect x="12" width="2" height="20" fill="#fbebef"/><rect x="16" width="2" height="20" fill="#fbebef"/></g><g transform="translate(235.87,266.58) scale(1.0855000000000001) rotate(0)"><path d="M5 0H10L5 5L0 10V5L5 0Z" fill="#dfe4f8"/><path d="M20 15V20H15L20 15Z" fill="#dfe4f8"/><path d="M20 5V10L15 15L10 20H5L20 5Z" fill="#dfe4f8"/><path d="M15 0H20L5 15.0002L0 20.0002V15.0002L15 0Z" fill="#dfe4f8"/></g><g transform="translate(214.16,288.29) scale(1.0855000000000001) rotate(0)"><rect width="20" height="10" fill="#8feedd"/></g><g transform="translate(235.87,288.29) scale(1.0855000000000001) rotate(0)"><path d="M5 0H10L5 5L0 10V5L5 0Z" fill="#fea6ba"/><path d="M20 15V20H15L20 15Z" fill="#fea6ba"/><path d="M20 5V10L15 15L10 20H5L20 5Z" fill="#fea6ba"/><path d="M15 0H20L5 15.0002L0 20.0002V15.0002L15 0Z" fill="#fea6ba"/></g><g transform="translate(264.18,264.18) scale(2.411) rotate(0)"><rect width="20" height="2" fill="#95a7f3"/><rect y="4" width="20" height="2" fill="#95a7f3"/><rect y="8" width="20" height="2" fill="#95a7f3"/><rect y="12" width="20" height="2" fill="#95a7f3"/><rect y="16" width="20" height="2" fill="#95a7f3"/></g><rect x="316.596415" y="264.17979" width="48.22329499999999" height="48.22329499999999" fill="#fafafa"/><g transform="translate(316.6,264.18) scale(1.2055) rotate(0)"><path d="M13 0H20V7L7 20H0V13L13 0Z" fill="#fdbdcc"/></g><circle cx="352.765" cy="276.235" r="12.055" fill="#fdb6c7"/><g transform="translate(316.6,288.29) scale(1.2055) rotate(0)"><path d="M10 0H20V10L10 20H0V10L10 0Z" fill="#f2f9f8"/></g><g transform="translate(340.71,288.29) scale(1.2055) rotate(0)"><path d="M5 0H10L5 5L0 10V5L5 0Z" fill="#fbe1e7"/><path d="M20 15V20H15L20 15Z" fill="#fbe1e7"/><path d="M20 5V10L15 15L10 20H5L20 5Z" fill="#fbe1e7"/><path d="M15 0H20L5 15.0002L0 20.0002V15.0002L15 0Z" fill="#fbe1e7"/></g><g transform="translate(371.41,266.58) scale(2.1710000000000003) rotate(0)"><path d="M13 0H20V7L7 20H0V13L13 0Z" fill="#fbecf0"/></g><rect x="427.9483870909091" y="270.6985120909091" width="35.185850818181805" height="35.185850818181805" fill="#fafafa"/><g transform="translate(427.95,270.7) scale(0.8795) rotate(0)"><path d="M10 0H20V10L10 20H0V10L10 0Z" fill="#c7f4ec"/></g><g transform="translate(445.54,270.7) scale(0.8795) rotate(0)"><path d="M13 0H20V7L7 20H0V13L13 0Z" fill="#94a6f3"/></g><g transform="translate(427.95,288.29) scale(0.8795) rotate(0)"><rect width="20" height="10" fill="#ff9db4"/></g><g transform="translate(445.54,288.29) scale(0.8795) rotate(0)"><path d="M10 0H20V10L10 20H0V10L10 0Z" fill="#e7f8f5"/></g><g transform="translate(484.48,274.82) scale(1.3475) rotate(0)"><rect width="20" height="10" fill="#dfe4f8"/></g><rect x="541.0158123636363" y="278.9326873636364" width="18.71750027272727" height="18.71750027272727" fill="#fafafa"/><circle cx="545.6999999999999" cy="283.61" r="4.68" fill="#ff9db4"/><g transform="translate(550.37,278.93) scale(0.46799999999999997) rotate(0)"><rect width="20" height="2" fill="#c3cdf6"/><rect y="4" width="20" height="2" fill="#c3cdf6"/><rect y="8" width="20" height="2" fill="#c3cdf6"/><rect y="12" width="20" height="2" fill="#c3cdf6"/><rect y="16" width="20" height="2" fill="#c3cdf6"/></g><g transform="translate(541.02,288.29) scale(0.46799999999999997) rotate(0)"><rect width="20" height="2" fill="#f4f5fa"/><rect y="4" width="20" height="2" fill="#f4f5fa"/><rect y="8" width="20" height="2" fill="#f4f5fa"/><rect y="12" width="20" height="2" fill="#f4f5fa"/><rect y="16" width="20" height="2" fill="#f4f5fa"/></g><g transform="translate(550.37,288.29) scale(0.46799999999999997) rotate(0)"><path d="M10 5L5 0L0 5L5 10L0 15L5 20L10 15L15 20L20 15L15 10L20 5L15 0L10 5Z" fill="#fbdce3"/></g><rect x="20.96665" y="335.46639999999996" width="10.483324999999994" height="10.483324999999994" fill="#fafafa"/><g transform="translate(20.97,335.47) scale(0.262) rotate(0)"><path fill-rule="evenodd" clip-rule="evenodd" d="M10 20C15.5228 20 20 15.5228 20 10C20 4.47715 15.5228 0 10 0C4.47715 0 0 4.47715 0 10C0 15.5228 4.47715 20 10 20ZM10 17C13.866 17 17 13.866 17 10C17 6.13401 13.866 3 10 3C6.13401 3 3 6.13401 3 10C3 13.866 6.13401 17 10 17Z" fill="#cad2f7"/></g><g transform="translate(26.21,335.47) scale(0.262) rotate(0)"><path d="M5 0H10L5 5L0 10V5L5 0Z" fill="#98a9f3"/><path d="M20 15V20H15L20 15Z" fill="#98a9f3"/><path d="M20 5V10L15 15L10 20H5L20 5Z" fill="#98a9f3"/><path d="M15 0H20L5 15.0002L0 20.0002V15.0002L15 0Z" fill="#98a9f3"/></g><g transform="translate(20.97,340.71) scale(0.262) rotate(0)"><rect width="20" height="10" fill="#f2f9f8"/></g><circle cx="28.830000000000002" cy="343.33" r="2.62" fill="#dbe1f8"/><circle cx="78.625" cy="340.70500000000004" r="7.985" fill="#e1f7f3"/><rect x="120.31044981818181" y="329.97694981818177" width="21.462225363636364" height="21.462225363636364" fill="#fafafa"/><circle cx="125.675" cy="335.345" r="5.365" fill="#fcced9"/><circle cx="136.405" cy="335.345" r="5.365" fill="#feabbe"/><g transform="translate(120.31,340.71) scale(0.5365) rotate(0)"><path fill-rule="evenodd" clip-rule="evenodd" d="M10 20C15.5228 20 20 15.5228 20 10C20 4.47715 15.5228 0 10 0C4.47715 0 0 4.47715 0 10C0 15.5228 4.47715 20 10 20ZM10 17C13.866 17 17 13.866 17 10C17 6.13401 13.866 3 10 3C6.13401 3 3 6.13401 3 10C3 13.866 6.13401 17 10 17Z" fill="#adf2e5"/></g><g transform="translate(131.04,340.71) scale(0.5365) rotate(0)"><rect width="20" height="10" fill="#73ebd5"/></g><rect x="169.9823497272727" y="327.2322247272727" width="26.95167554545454" height="26.95167554545454" fill="#fafafa"/><g transform="translate(169.98,327.23) scale(0.674) rotate(0)"><path d="M10 0L20 10L10 20L0 10L10 0Z" fill="#fdc5d2"/></g><g transform="translate(183.46,327.23) scale(0.674) rotate(0)"><rect width="2" height="20" fill="#fdb3c4"/><rect x="4" width="2" height="20" fill="#fdb3c4"/><rect x="8" width="2" height="20" fill="#fdb3c4"/><rect x="12" width="2" height="20" fill="#fdb3c4"/><rect x="16" width="2" height="20" fill="#fdb3c4"/></g><circle cx="176.72" cy="347.45" r="6.74" fill="#a5f1e3"/><g transform="translate(183.46,340.71) scale(0.674) rotate(0)"><path d="M10 0H20V10L10 20H0V10L10 0Z" fill="#e1f7f3"/></g><rect x="219.65424963636363" y="324.48749963636357" width="32.44112572727272" height="32.44112572727272" fill="#fafafa"/><g transform="translate(219.65,324.49) scale(0.8109999999999999) rotate(0)"><path d="M10 5L5 0L0 5L5 10L0 15L5 20L10 15L15 20L20 15L15 10L20 5L15 0L10 5Z" fill="#b1bef5"/></g><g transform="translate(235.87,324.49) scale(0.8109999999999999) rotate(0)"><path d="M10 0L20 10L10 20L0 10L10 0Z" fill="#8deedc"/></g><g transform="translate(219.65,340.71) scale(0.8109999999999999) rotate(0)"><path d="M5 0H10L5 5L0 10V5L5 0Z" fill="#8beedb"/><path d="M20 15V20H15L20 15Z" fill="#8beedb"/><path d="M20 5V10L15 15L10 20H5L20 5Z" fill="#8beedb"/><path d="M15 0H20L5 15.0002L0 20.0002V15.0002L15 0Z" fill="#8beedb"/></g><g transform="translate(235.87,340.71) scale(0.8109999999999999) rotate(0)"><path d="M5 0H10L5 5L0 10V5L5 0Z" fill="#fea9bd"/><path d="M20 15V20H15L20 15Z" fill="#fea9bd"/><path d="M20 5V10L15 15L10 20H5L20 5Z" fill="#fea9bd"/><path d="M15 0H20L5 15.0002L0 20.0002V15.0002L15 0Z" fill="#fea9bd"/></g><g transform="translate(270.47,322.89) scale(1.782) rotate(0)"><rect width="2" height="20" fill="#79ecd6"/><rect x="4" width="2" height="20" fill="#79ecd6"/><rect x="8" width="2" height="20" fill="#79ecd6"/><rect x="12" width="2" height="20" fill="#79ecd6"/><rect x="16" width="2" height="20" fill="#79ecd6"/></g><rect x="322.88640999999996" y="322.88640999999996" width="35.643305" height="35.643305" fill="#fafafa"/><g transform="translate(322.89,322.89) scale(0.891) rotate(0)"><path d="M13 0H20V7L7 20H0V13L13 0Z" fill="#d6ddf8"/></g><g transform="translate(340.71,322.89) scale(0.891) rotate(0)"><path d="M13 0H20V7L7 20H0V13L13 0Z" fill="#c0caf6"/></g><g transform="translate(322.89,340.71) scale(0.891) rotate(0)"><path d="M5 0H10L5 5L0 10V5L5 0Z" fill="#feabbe"/><path d="M20 15V20H15L20 15Z" fill="#feabbe"/><path d="M20 5V10L15 15L10 20H5L20 5Z" fill="#feabbe"/><path d="M15 0H20L5 15.0002L0 20.0002V15.0002L15 0Z" fill="#feabbe"/></g><g transform="translate(340.71,340.71) scale(0.891) rotate(0)"><rect width="2" height="20" fill="#97efdf"/><rect x="4" width="2" height="20" fill="#97efdf"/><rect x="8" width="2" height="20" fill="#97efdf"/><rect x="12" width="2" height="20" fill="#97efdf"/><rect x="16" width="2" height="20" fill="#97efdf"/></g><rect x="376.9041246363636" y="324.48749963636357" width="32.44112572727272" height="32.44112572727272" fill="#fafafa"/><g transform="translate(376.9,324.49) scale(0.8109999999999999) rotate(0)"><rect width="20" height="10" fill="#bef3e9"/></g><g transform="translate(393.12,324.49) scale(0.8109999999999999) rotate(0)"><path d="M10 0H20V10L10 20H0V10L10 0Z" fill="#fcd0da"/></g><circle cx="385.01" cy="348.82" r="8.11" fill="#f6faf9"/><g transform="translate(393.12,340.71) scale(0.8109999999999999) rotate(0)"><path d="M10 0H20V10L10 20H0V10L10 0Z" fill="#a3f1e2"/></g><rect x="432.0654747272727" y="327.2322247272727" width="26.95167554545454" height="26.95167554545454" fill="#fafafa"/><g transform="translate(432.07,327.23) scale(0.674) rotate(0)"><path d="M5 0H10L5 5L0 10V5L5 0Z" fill="#fea1b7"/><path d="M20 15V20H15L20 15Z" fill="#fea1b7"/><path d="M20 5V10L15 15L10 20H5L20 5Z" fill="#fea1b7"/><path d="M15 0H20L5 15.0002L0 20.0002V15.0002L15 0Z" fill="#fea1b7"/></g><circle cx="452.28000000000003" cy="333.97" r="6.74" fill="#dde2f8"/><g transform="translate(432.07,340.71) scale(0.674) rotate(0)"><path fill-rule="evenodd" clip-rule="evenodd" d="M10 20C15.5228 20 20 15.5228 20 10C20 4.47715 15.5228 0 10 0C4.47715 0 0 4.47715 0 10C0 15.5228 4.47715 20 10 20ZM10 17C13.866 17 17 13.866 17 10C17 6.13401 13.866 3 10 3C6.13401 3 3 6.13401 3 10C3 13.866 6.13401 17 10 17Z" fill="#fdb7c7"/></g><g transform="translate(445.54,340.71) scale(0.674) rotate(0)"><path d="M10 0H20V10L10 20H0V10L10 0Z" fill="#b9c5f6"/></g><rect x="487.2268248181818" y="329.97694981818177" width="21.462225363636364" height="21.462225363636364" fill="#fafafa"/><g transform="translate(487.23,329.98) scale(0.5365) rotate(0)"><path d="M13 0H20V7L7 20H0V13L13 0Z" fill="#fbf0f2"/></g><g transform="translate(497.96,329.98) scale(0.5365) rotate(0)"><path d="M5 0H10L5 5L0 10V5L5 0Z" fill="#c5f4ec"/><path d="M20 15V20H15L20 15Z" fill="#c5f4ec"/><path d="M20 5V10L15 15L10 20H5L20 5Z" fill="#c5f4ec"/><path d="M15 0H20L5 15.0002L0 20.0002V15.0002L15 0Z" fill="#c5f4ec"/></g><g transform="translate(487.23,340.71) scale(0.5365) rotate(0)"><rect width="20" height="2" fill="#fccbd7"/><rect y="4" width="20" height="2" fill="#fccbd7"/><rect y="8" width="20" height="2" fill="#fccbd7"/><rect y="12" width="20" height="2" fill="#fccbd7"/><rect y="16" width="20" height="2" fill="#fccbd7"/></g><circle cx="503.325" cy="346.075" r="5.365" fill="#c9f5ed"/><rect x="542.3881749090909" y="332.72167490909084" width="15.972775181818172" height="15.972775181818172" fill="#fafafa"/><g transform="translate(542.39,332.72) scale(0.3995) rotate(0)"><path d="M13 0H20V7L7 20H0V13L13 0Z" fill="#9eaef4"/></g><g transform="translate(550.37,332.72) scale(0.3995) rotate(0)"><path d="M13 0H20V7L7 20H0V13L13 0Z" fill="#fdb5c6"/></g><g transform="translate(542.39,340.71) scale(0.3995) rotate(0)"><rect width="2" height="20" fill="#e1f7f3"/><rect x="4" width="2" height="20" fill="#e1f7f3"/><rect x="8" width="2" height="20" fill="#e1f7f3"/><rect x="12" width="2" height="20" fill="#e1f7f3"/><rect x="16" width="2" height="20" fill="#e1f7f3"/></g><g transform="translate(550.37,340.71) scale(0.3995) rotate(0)"><rect width="20" height="10" fill="#d6f6f0"/></g><g transform="translate(20.97,387.88) scale(0.524) rotate(0)"><path d="M10 5L5 0L0 5L5 10L0 15L5 20L10 15L15 20L20 15L15 10L20 5L15 0L10 5Z" fill="#acf2e5"/></g><g transform="translate(72.01,386.51) scale(0.6615) rotate(0)"><path fill-rule="evenodd" clip-rule="evenodd" d="M10 20C15.5228 20 20 15.5228 20 10C20 4.47715 15.5228 0 10 0C4.47715 0 0 4.47715 0 10C0 15.5228 4.47715 20 10 20ZM10 17C13.866 17 17 13.866 17 10C17 6.13401 13.866 3 10 3C6.13401 3 3 6.13401 3 10C3 13.866 6.13401 17 10 17Z" fill="#94efde"/></g><g transform="translate(123.06,385.14) scale(0.7985) rotate(0)"><rect width="20" height="2" fill="#c0cbf6"/><rect y="4" width="20" height="2" fill="#c0cbf6"/><rect y="8" width="20" height="2" fill="#c0cbf6"/><rect y="12" width="20" height="2" fill="#c0cbf6"/><rect y="16" width="20" height="2" fill="#c0cbf6"/></g><g transform="translate(174.1,383.77) scale(0.9359999999999999) rotate(0)"><path d="M10 5L5 0L0 5L5 10L0 15L5 20L10 15L15 20L20 15L15 10L20 5L15 0L10 5Z" fill="#fafafa"/></g><g transform="translate(225.14,382.39) scale(1.073) rotate(0)"><rect width="20" height="10" fill="#fbe6eb"/></g><g transform="translate(276.76,381.59) scale(1.153) rotate(0)"><rect width="20" height="10" fill="#b6c3f5"/></g><g transform="translate(329.18,381.59) scale(1.153) rotate(0)"><path d="M10 0L20 10L10 20L0 10L10 0Z" fill="#a6b5f4"/></g><rect x="382.3935748181818" y="382.3935748181818" width="21.462225363636364" height="21.462225363636364" fill="#fafafa"/><g transform="translate(382.39,382.39) scale(0.5365) rotate(0)"><path d="M10 0L20 10L10 20L0 10L10 0Z" fill="#e4e8f9"/></g><g transform="translate(393.12,382.39) scale(0.5365) rotate(0)"><rect width="20" height="2" fill="#7cecd7"/><rect y="4" width="20" height="2" fill="#7cecd7"/><rect y="8" width="20" height="2" fill="#7cecd7"/><rect y="12" width="20" height="2" fill="#7cecd7"/><rect y="16" width="20" height="2" fill="#7cecd7"/></g><g transform="translate(382.39,393.12) scale(0.5365) rotate(0)"><path d="M10 0L20 10L10 20L0 10L10 0Z" fill="#fbe0e6"/></g><g transform="translate(393.12,393.12) scale(0.5365) rotate(0)"><path d="M10 0H20V10L10 20H0V10L10 0Z" fill="#c8d1f7"/></g><circle cx="445.54" cy="393.13" r="9.36" fill="#fdc7d3"/><g transform="translate(489.97,385.14) scale(0.7985) rotate(0)"><path d="M10 0L20 10L10 20L0 10L10 0Z" fill="#7becd7"/></g><rect x="543.7605374545454" y="386.5106624545454" width="13.228050090909086" height="13.228050090909086" fill="#fafafa"/><g transform="translate(543.76,386.51) scale(0.3305) rotate(0)"><path d="M10 0H20V10L10 20H0V10L10 0Z" fill="#ff9db4"/></g><g transform="translate(550.37,386.51) scale(0.3305) rotate(0)"><path d="M5 0H10L5 5L0 10V5L5 0Z" fill="#f9f9fa"/><path d="M20 15V20H15L20 15Z" fill="#f9f9fa"/><path d="M20 5V10L15 15L10 20H5L20 5Z" fill="#f9f9fa"/><path d="M15 0H20L5 15.0002L0 20.0002V15.0002L15 0Z" fill="#f9f9fa"/></g><g transform="translate(543.76,393.12) scale(0.3305) rotate(0)"><path d="M10 0L20 10L10 20L0 10L10 0Z" fill="#fdc2d0"/></g><g transform="translate(550.37,393.12) scale(0.3305) rotate(0)"><path d="M13 0H20V7L7 20H0V13L13 0Z" fill="#ebedf9"/></g></g></svg>